# xmcd
#
# Track frame offsets: 
#        150
#        20005
#        36303
#        58321
#        81423
#        100480
#        121162
#        145387
#        168854
#        188429
#        211395
#        234472
#        255162
#        264182
#
# Disc length: 3762 seconds
#
# Revision: 1
# Processed by: cddbd v1.5.2PL0 Copyright (c) Steve Scherf et al.
# Submitted via: ExactAudioCopyFreeDBPlugin 1.0
#
DISCID=bd0eb00e
DTITLE=Various Artist - Love Jazz Again
DYEAR=2009
DGENRE=Jazz
TTITLE0=Akujyo
TTITLE1=Baby You're Mine
TTITLE2=Havana Moonlight
TTITLE3=Don't Want To Be A Fool
TTITLE4=You're Beautiful
TTITLE5=We've Only Just Begun
TTITLE6=Hello Tomorrow
TTITLE7=Do You Feel What I'm Feeling?
TTITLE8=Strawberry Moon
TTITLE9=Through The Fire
TTITLE10=Nothing's Gonna Change My Love For You
TTITLE11=Peaceful Hideaway
TTITLE12=Unforgettable
TTITLE13=A Thousand Kisses Deep
EXTD=YEAR: 2009
EXTT0=
EXTT1=
EXTT2=
EXTT3=
EXTT4=
EXTT5=
EXTT6=
EXTT7=
EXTT8=
EXTT9=
EXTT10=
EXTT11=
EXTT12=
EXTT13=
PLAYORDER=
